<?xml version="1.0" encoding="utf-8"?>
<svg version="1.1" xmlns:xlink="http://www.w3.org/1999/xlink" width="37px" height="36px" xmlns="http://www.w3.org/2000/svg">
  <defs>
    <filter x="1268px" y="567px" width="37px" height="36px" filterUnits="userSpaceOnUse" id="filter405">
      <feOffset dx="0" dy="0" in="SourceAlpha" result="shadowOffsetInner" />
      <feGaussianBlur stdDeviation="6" in="shadowOffsetInner" result="shadowGaussian" />
      <feComposite in2="shadowGaussian" operator="atop" in="SourceAlpha" result="shadowComposite" />
      <feColorMatrix type="matrix" values="0 0 0 0 0.56078431372549  0 0 0 0 0.525490196078431  0 0 0 0 0.756862745098039  0 0 0 0.2 0  " in="shadowComposite" />
    </filter>
    <g id="widget406">
      <path d="M 12.1294642857143 2.48666232921275  C 12.7098214285714 3.25439167208848  13 4.0910865322056  13 4.99674690956409  C 13 5.90240728692258  12.7098214285714 6.73910214703969  12.1294642857143 7.50683148991542  C 11.5491071428571 8.27456083279115  10.7607886904762 8.88093689004554  9.76450892857143 9.32595966167859  C 8.76822916666667 9.77098243331165  7.68005952380952 9.99349381912817  6.5 9.99349381912817  C 6.16145833333333 9.99349381912817  5.81082589285714 9.97267404033832  5.44810267857143 9.93103448275862  C 4.49051339285714 10.8418998048146  3.37816220238095 11.4716981132075  2.11104910714286 11.8204294079375  C 1.87406994047619 11.893298633702  1.59840029761905 11.9505530253741  1.28404017857143 11.9921925829538  C 1.20182291666667 12.0026024723487  1.12806919642857 11.9791802212102  1.06277901785714 11.9219258295381  C 0.997488839285714 11.864671437866  0.955171130952381 11.7891997397528  0.935825892857143 11.6955107351984  L 0.935825892857143 11.6877033181522  C 0.921316964285714 11.6668835393624  0.920107886904762 11.6356538711776  0.932198660714286 11.5940143135979  C 0.94428943452381 11.5523747560182  0.949125744047619 11.5263500325309  0.946707589285714 11.515940143136  C 0.94428943452381 11.5055302537411  0.955171130952381 11.4808067664281  0.979352678571428 11.4417696811971  L 1.02287946428571 11.3715029277814  C 1.02287946428571 11.3715029277814  1.03980654761905 11.3493819128172  1.07366071428571 11.3051398828887  C 1.10751488095238 11.2608978529603  1.12686011904762 11.2374756018217  1.13169642857143 11.234873129473  C 1.1655505952381 11.1932335718933  1.24051339285714 11.1034482758621  1.35658482142857 10.9655172413793  C 1.47265625 10.8275862068966  1.55608258928571 10.7286922576448  1.60686383928571 10.6688353936239  C 1.65764508928571 10.6089785296031  1.73260788690476 10.5061808718282  1.83175223214286 10.3604424202993  C 1.93089657738095 10.2147039687703  2.00948660714286 10.081977878985  2.06752232142857 9.9622641509434  C 2.12555803571429 9.84255042290176  2.19084821428571 9.68900455432661  2.26339285714286 9.50162654521796  C 2.3359375 9.3142485361093  2.39880952380952 9.11646063760573  2.45200892857143 8.90826284970722  C 1.69270833333333 8.44502277163305  1.0942150297619 7.87247885491217  0.656529017857143 7.19063109954457  C 0.218843005952381 6.50878334417697  0 5.77748861418347  0 4.99674690956409  C 0 4.32010409889395  0.171688988095238 3.67338972023422  0.515066964285714 3.05660377358491  C 0.85844494047619 2.43981782693559  1.3203125 1.90761223162004  1.90066964285714 1.45998698763826  C 2.48102678571429 1.01236174365647  3.17261904761905 0.65712426805465  3.97544642857143 0.394274560832791  C 4.77827380952381 0.131424853610929  5.61979166666667 0  6.5 0  C 7.68005952380952 0  8.76822916666667 0.222511385816526  9.76450892857143 0.667534157449577  C 10.7607886904762 1.11255692908263  11.5491071428571 1.71893298633702  12.1294642857143 2.48666232921275  Z " fill-rule="nonzero" fill="#86858f" stroke="none" transform="matrix(1 0 0 1 1280 579 )" />
    </g>
  </defs>
  <g transform="matrix(1 0 0 1 -1268 -567 )">
    <use xlink:href="#widget406" filter="url(#filter405)" />
    <use xlink:href="#widget406" />
  </g>
</svg>