<?xml version="1.0" encoding="utf-8"?>
<svg version="1.1" xmlns:xlink="http://www.w3.org/1999/xlink" width="824px" height="60px" viewBox="388 985  824 60" xmlns="http://www.w3.org/2000/svg">
  <defs>
    <filter x="388px" y="985px" width="824px" height="60px" filterUnits="userSpaceOnUse" id="filter443">
      <feOffset dx="0" dy="0" in="SourceAlpha" result="shadowOffsetInner" />
      <feGaussianBlur stdDeviation="6" in="shadowOffsetInner" result="shadowGaussian" />
      <feComposite in2="shadowGaussian" operator="atop" in="SourceAlpha" result="shadowComposite" />
      <feColorMatrix type="matrix" values="0 0 0 0 0.56078431372549  0 0 0 0 0.525490196078431  0 0 0 0 0.756862745098039  0 0 0 0.2 0  " in="shadowComposite" />
    </filter>
    <g id="widget444">
      <path d="M 401 1001  A 3 3 0 0 1 404 998 L 1196 998  A 3 3 0 0 1 1199 1001 L 1199 1029  A 3 3 0 0 1 1196 1032 L 404 1032  A 3 3 0 0 1 401 1029 L 401 1001  Z " fill-rule="nonzero" fill="#ffffff" stroke="none" />
      <path d="M 400.5 1001  A 3.5 3.5 0 0 1 404 997.5 L 1196 997.5  A 3.5 3.5 0 0 1 1199.5 1001 L 1199.5 1029  A 3.5 3.5 0 0 1 1196 1032.5 L 404 1032.5  A 3.5 3.5 0 0 1 400.5 1029 L 400.5 1001  Z " stroke-width="1" stroke="#8f86c1" fill="none" stroke-opacity="0.2" />
    </g>
  </defs>
  <use xlink:href="#widget444" filter="url(#filter443)" />
  <use xlink:href="#widget444" />
</svg>