<?xml version="1.0" encoding="utf-8"?>
<svg version="1.1" xmlns:xlink="http://www.w3.org/1999/xlink" width="26px" height="18px" xmlns="http://www.w3.org/2000/svg">
  <g transform="matrix(1 0 0 1 -1172 -1910 )">
    <path d="M 19.3041294642857 14.1015625  C 21.2434895833333 12.8359375  22.8563988095238 11.1354166666667  24.1428571428571 9  C 22.672619047619 6.54166666666667  20.8299851190476 4.703125  18.6149553571429 3.484375  C 19.2049851190476 4.56770833333333  19.5 5.73958333333333  19.5 7  C 19.5 8.92708333333333  18.864025297619 10.5755208333333  17.5920758928571 11.9453125  C 16.3201264880952 13.3151041666667  14.7894345238095 14  13 14  C 11.2105654761905 14  9.67987351190476 13.3151041666667  8.40792410714286 11.9453125  C 7.13597470238095 10.5755208333333  6.5 8.92708333333333  6.5 7  C 6.5 5.73958333333333  6.79501488095238 4.56770833333333  7.38504464285714 3.484375  C 5.17001488095238 4.703125  3.32738095238095 6.54166666666667  1.85714285714286 9  C 3.14360119047619 11.1354166666667  4.75651041666667 12.8359375  6.69587053571429 14.1015625  C 8.63523065476191 15.3671875  10.7366071428571 16  13 16  C 15.2633928571429 16  17.3647693452381 15.3671875  19.3041294642857 14.1015625  Z M 13.4933035714286 3.53125  C 13.6287202380952 3.38541666666667  13.6964285714286 3.20833333333333  13.6964285714286 3  C 13.6964285714286 2.79166666666667  13.6287202380952 2.61458333333333  13.4933035714286 2.46875  C 13.3578869047619 2.32291666666666  13.1934523809524 2.25  13 2.25  C 11.7909226190476 2.25  10.7535342261905 2.71614583333333  9.88783482142857 3.6484375  C 9.02213541666667 4.58072916666667  8.58928571428571 5.69791666666667  8.58928571428571 7  C 8.58928571428571 7.20833333333333  8.65699404761905 7.38541666666667  8.79241071428571 7.53125  C 8.92782738095238 7.67708333333333  9.09226190476191 7.75  9.28571428571429 7.75  C 9.47916666666667 7.75  9.64360119047619 7.67708333333333  9.77901785714286 7.53125  C 9.91443452380952 7.38541666666667  9.98214285714286 7.20833333333333  9.98214285714286 7  C 9.98214285714286 6.10416666666667  10.2771577380952 5.33854166666667  10.8671875 4.703125  C 11.4572172619048 4.06770833333333  12.1681547619048 3.75  13 3.75  C 13.1934523809524 3.75  13.3578869047619 3.67708333333333  13.4933035714286 3.53125  Z M 25.7098214285714 7.921875  C 25.9032738095238 8.28645833333333  26 8.64583333333333  26 9  C 26 9.35416666666666  25.9032738095238 9.71354166666667  25.7098214285714 10.078125  C 24.3556547619048 12.4739583333333  22.5347842261905 14.3932291666667  20.2472098214286 15.8359375  C 17.9596354166667 17.2786458333333  15.5438988095238 18  13 18  C 10.4561011904762 18  8.04036458333333 17.2760416666667  5.75279017857143 15.828125  C 3.46521577380952 14.3802083333333  1.64434523809524 12.4635416666667  0.290178571428571 10.078125  C 0.0967261904761905 9.71354166666667  0 9.35416666666666  0 9  C 0 8.64583333333333  0.0967261904761905 8.28645833333333  0.290178571428571 7.921875  C 1.64434523809524 5.53645833333333  3.46521577380952 3.61979166666667  5.75279017857143 2.171875  C 8.04036458333333 0.723958333333332  10.4561011904762 0  13 0  C 15.5438988095238 0  17.9596354166667 0.723958333333332  20.2472098214286 2.171875  C 22.5347842261905 3.61979166666667  24.3556547619048 5.53645833333333  25.7098214285714 7.921875  Z " fill-rule="nonzero" fill="#86858f" stroke="none" transform="matrix(1 0 0 1 1172 1910 )" />
  </g>
</svg>