<?xml version="1.0" encoding="utf-8"?>
<svg version="1.1" xmlns:xlink="http://www.w3.org/1999/xlink" width="20px" height="18px" xmlns="http://www.w3.org/2000/svg">
  <g transform="matrix(1 0 0 1 -1107 -1910 )">
    <path d="M 10.4910714285714 17.7890625  C 10.3571428571429 17.9296875  10.1934523809524 18  10 18  C 9.80654761904762 18  9.64285714285714 17.9296875  9.50892857142857 17.7890625  L 2.54464285714286 10.734375  C 2.4702380952381 10.671875  2.36793154761905 10.5703125  2.23772321428571 10.4296875  C 2.10751488095238 10.2890625  1.90104166666667 10.033203125  1.61830357142857 9.662109375  C 1.33556547619048 9.291015625  1.08258928571429 8.91015625  0.859375 8.51953125  C 0.636160714285714 8.12890625  0.437127976190476 7.65625  0.262276785714286 7.1015625  C 0.0874255952380952 6.546875  0 6.0078125  0 5.484375  C 0 3.765625  0.472470238095238 2.421875  1.41741071428571 1.453125  C 2.36235119047619 0.484375  3.66815476190476 0  5.33482142857143 0  C 5.79613095238095 0  6.26674107142857 0.0839843749999989  6.74665178571429 0.251953125000001  C 7.2265625 0.419921874999998  7.67299107142857 0.646484374999999  8.0859375 0.931640625  C 8.49888392857143 1.216796875  8.85416666666667 1.484375  9.15178571428571 1.734375  C 9.44940476190476 1.984375  9.73214285714286 2.25  10 2.53125  C 10.2678571428571 2.25  10.5505952380952 1.984375  10.8482142857143 1.734375  C 11.1458333333333 1.484375  11.5011160714286 1.216796875  11.9140625 0.931640625  C 12.3270089285714 0.646484374999999  12.7734375 0.419921874999998  13.2533482142857 0.251953125000001  C 13.7332589285714 0.0839843749999989  14.203869047619 0  14.6651785714286 0  C 16.3318452380952 0  17.6376488095238 0.484375  18.5825892857143 1.453125  C 19.5275297619048 2.421875  20 3.765625  20 5.484375  C 20 7.2109375  19.1480654761905 8.96875  17.4441964285714 10.7578125  L 10.4910714285714 17.7890625  Z " fill-rule="nonzero" fill="#86858f" stroke="none" transform="matrix(1 0 0 1 1107 1910 )" />
  </g>
</svg>