<?xml version="1.0" encoding="utf-8"?>
<svg version="1.1" xmlns:xlink="http://www.w3.org/1999/xlink" width="52px" height="52px" xmlns="http://www.w3.org/2000/svg">
  <defs>
    <filter x="266px" y="197px" width="52px" height="52px" filterUnits="userSpaceOnUse" id="filter425">
      <feOffset dx="2" dy="2" in="SourceAlpha" result="shadowOffsetInner" />
      <feGaussianBlur stdDeviation="3" in="shadowOffsetInner" result="shadowGaussian" />
      <feComposite in2="shadowGaussian" operator="atop" in="SourceAlpha" result="shadowComposite" />
      <feColorMatrix type="matrix" values="0 0 0 0 0.56078431372549  0 0 0 0 0.525490196078431  0 0 0 0 0.756862745098039  0 0 0 0.215686274509804 0  " in="shadowComposite" />
    </filter>
    <g id="widget426">
      <path d="M 290 201.5  C 300.92 201.5  309.5 210.08  309.5 221  C 309.5 231.92  300.92 240.5  290 240.5  C 279.08 240.5  270.5 231.92  270.5 221  C 270.5 210.08  279.08 201.5  290 201.5  Z " fill-rule="nonzero" fill="#ffffff" stroke="none" fill-opacity="0.996078431372549" />
      <path d="M 290 201.5  C 300.92 201.5  309.5 210.08  309.5 221  C 309.5 231.92  300.92 240.5  290 240.5  C 279.08 240.5  270.5 231.92  270.5 221  C 270.5 210.08  279.08 201.5  290 201.5  Z " stroke-width="1" stroke="#8f86c1" fill="none" stroke-opacity="0.184313725490196" />
    </g>
  </defs>
  <g transform="matrix(1 0 0 1 -266 -197 )">
    <use xlink:href="#widget426" filter="url(#filter425)" />
    <use xlink:href="#widget426" />
  </g>
</svg>