<?xml version="1.0" encoding="utf-8"?>
<svg version="1.1" xmlns:xlink="http://www.w3.org/1999/xlink" width="44px" height="42px" xmlns="http://www.w3.org/2000/svg">
  <defs>
    <filter x="669px" y="140px" width="44px" height="42px" filterUnits="userSpaceOnUse" id="filter352">
      <feOffset dx="0" dy="0" in="SourceAlpha" result="shadowOffsetInner" />
      <feGaussianBlur stdDeviation="6" in="shadowOffsetInner" result="shadowGaussian" />
      <feComposite in2="shadowGaussian" operator="atop" in="SourceAlpha" result="shadowComposite" />
      <feColorMatrix type="matrix" values="0 0 0 0 0.56078431372549  0 0 0 0 0.525490196078431  0 0 0 0 0.756862745098039  0 0 0 0.2 0  " in="shadowComposite" />
    </filter>
    <g id="widget353">
      <path d="M 18.6607142857143 3.72999349381913  C 19.5535714285714 4.88158750813272  20 6.13662979830839  20 7.49512036434613  C 20 8.85361093038386  19.5535714285714 10.1086532205595  18.6607142857143 11.2602472348731  C 17.7678571428571 12.4118412491867  16.5550595238095 13.3214053350683  15.0223214285714 13.9889394925179  C 13.4895833333333 14.6564736499675  11.8154761904762 14.9902407286923  10 14.9902407286923  C 9.47916666666667 14.9902407286923  8.93973214285714 14.9590110605075  8.38169642857143 14.8965517241379  C 6.90848214285714 16.2628497072219  5.19717261904762 17.2075471698113  3.24776785714286 17.7306441119063  C 2.88318452380952 17.839947950553  2.45907738095238 17.9258295380612  1.97544642857143 17.9882888744307  C 1.84895833333333 18.0039037085231  1.73549107142857 17.9687703318152  1.63504464285714 17.8828887443071  C 1.53459821428571 17.797007156799  1.46949404761905 17.6837996096291  1.43973214285714 17.5432661027977  L 1.43973214285714 17.5315549772284  C 1.41741071428571 17.5003253090436  1.4155505952381 17.4534808067664  1.43415178571429 17.3910214703969  C 1.45275297619048 17.3285621340273  1.46019345238095 17.2895250487964  1.45647321428571 17.273910214704  C 1.45275297619048 17.2582953806116  1.46949404761905 17.2212101496422  1.50669642857143 17.1626545217957  L 1.57366071428571 17.0572543916721  C 1.57366071428571 17.0572543916721  1.59970238095238 17.0240728692258  1.65178571428571 16.9577098243331  C 1.70386904761905 16.8913467794405  1.73363095238095 16.8562134027326  1.74107142857143 16.8523096942095  C 1.79315476190476 16.7898503578399  1.90848214285714 16.6551724137931  2.08705357142857 16.448275862069  C 2.265625 16.2413793103448  2.39397321428571 16.0930383864671  2.47209821428571 16.0032530904359  C 2.55022321428571 15.9134677944047  2.6655505952381 15.7592713077424  2.81808035714286 15.5406636304489  C 2.97061011904762 15.3220559531555  3.09151785714286 15.1229668184776  3.18080357142857 14.9433962264151  C 3.27008928571429 14.7638256343526  3.37053571428571 14.5335068314899  3.48214285714286 14.2524398178269  C 3.59375 13.971372804164  3.69047619047619 13.6746909564086  3.77232142857143 13.3623942745608  C 2.60416666666667 12.6675341574496  1.68340773809524 11.8087182823683  1.01004464285714 10.7859466493169  C 0.336681547619048 9.76317501626545  0 8.66623292127521  0 7.49512036434613  C 0 6.48015614834092  0.264136904761905 5.51008458035134  0.792410714285714 4.58490566037736  C 1.32068452380952 3.65972674040338  2.03125 2.86141834743006  2.92410714285714 2.18998048145738  C 3.81696428571429 1.51854261548471  4.88095238095238 0.985686402081975  6.11607142857143 0.591411841249187  C 7.35119047619048 0.197137280416394  8.64583333333333 0  10 0  C 11.8154761904762 0  13.4895833333333 0.333767078724789  15.0223214285714 1.00130123617437  C 16.5550595238095 1.66883539362394  17.7678571428571 2.57839947950553  18.6607142857143 3.72999349381913  Z " fill-rule="nonzero" fill="#86858f" stroke="none" transform="matrix(1 0 0 1 681 152 )" />
    </g>
  </defs>
  <g transform="matrix(1 0 0 1 -669 -140 )">
    <use xlink:href="#widget353" filter="url(#filter352)" />
    <use xlink:href="#widget353" />
  </g>
</svg>