<?xml version="1.0" encoding="utf-8"?>
<svg version="1.1" xmlns:xlink="http://www.w3.org/1999/xlink" width="96px" height="30px" xmlns="http://www.w3.org/2000/svg">
  <defs>
    <linearGradient gradientUnits="userSpaceOnUse" x1="153.386077347314" y1="351.529932775958" x2="70.4349307869965" y2="370.216729528559" id="LinearGradient330">
      <stop id="Stop331" stop-color="#a593e0" offset="0" />
      <stop id="Stop332" stop-color="#8e7bc7" offset="1" />
    </linearGradient>
    <linearGradient gradientUnits="userSpaceOnUse" x1="74.7846176566396" y1="353.847701971915" x2="153.522962309568" y2="367.108896860829" id="LinearGradient333">
      <stop id="Stop334" stop-color="#a593e0" offset="0" />
      <stop id="Stop335" stop-color="#8e7bc7" offset="1" />
    </linearGradient>
  </defs>
  <g transform="matrix(1 0 0 1 -65 -345 )">
    <path d="M 65.5 349  A 3.5 3.5 0 0 1 69 345.5 L 157 345.5  A 3.5 3.5 0 0 1 160.5 349 L 160.5 371  A 3.5 3.5 0 0 1 157 374.5 L 69 374.5  A 3.5 3.5 0 0 1 65.5 371 L 65.5 349  Z " fill-rule="nonzero" fill="url(#LinearGradient330)" stroke="none" />
    <path d="M 65.5 349  A 3.5 3.5 0 0 1 69 345.5 L 157 345.5  A 3.5 3.5 0 0 1 160.5 349 L 160.5 371  A 3.5 3.5 0 0 1 157 374.5 L 69 374.5  A 3.5 3.5 0 0 1 65.5 371 L 65.5 349  Z " stroke-width="1" stroke="url(#LinearGradient333)" fill="none" />
  </g>
</svg>