<?xml version="1.0" encoding="utf-8"?>
<svg version="1.1" xmlns:xlink="http://www.w3.org/1999/xlink" width="148px" height="132px" xmlns="http://www.w3.org/2000/svg">
  <defs>
    <filter x="1409px" y="145px" width="148px" height="132px" filterUnits="userSpaceOnUse" id="filter465">
      <feOffset dx="0" dy="0" in="SourceAlpha" result="shadowOffsetInner" />
      <feGaussianBlur stdDeviation="6" in="shadowOffsetInner" result="shadowGaussian" />
      <feComposite in2="shadowGaussian" operator="atop" in="SourceAlpha" result="shadowComposite" />
      <feColorMatrix type="matrix" values="0 0 0 0 0.56078431372549  0 0 0 0 0.525490196078431  0 0 0 0 0.756862745098039  0 0 0 0.2 0  " in="shadowComposite" />
    </filter>
    <g id="widget466">
      <path d="M 1422 161  A 3 3 0 0 1 1425 158 L 1541 158  A 3 3 0 0 1 1544 161 L 1544 261  A 3 3 0 0 1 1541 264 L 1425 264  A 3 3 0 0 1 1422 261 L 1422 161  Z " fill-rule="nonzero" fill="#ffffff" stroke="none" />
      <path d="M 1421.5 161  A 3.5 3.5 0 0 1 1425 157.5 L 1541 157.5  A 3.5 3.5 0 0 1 1544.5 161 L 1544.5 261  A 3.5 3.5 0 0 1 1541 264.5 L 1425 264.5  A 3.5 3.5 0 0 1 1421.5 261 L 1421.5 161  Z " stroke-width="1" stroke="#8f86c1" fill="none" stroke-opacity="0.4" />
    </g>
  </defs>
  <g transform="matrix(1 0 0 1 -1409 -145 )">
    <use xlink:href="#widget466" filter="url(#filter465)" />
    <use xlink:href="#widget466" />
  </g>
</svg>